<?xml version="1.0" standalone="no"?>
<!DOCTYPE svg PUBLIC "-//W3C//DTD SVG 1.1//EN" "http://www.w3.org/Graphics/SVG/1.1/DTD/svg11.dtd">
<svg version="1.1" xmlns="http://www.w3.org/2000/svg" viewBox="0 0 120 120" width="120" height="120"><!-- svg-source:excalidraw --><metadata><!-- payload-type:application/vnd.excalidraw+json --><!-- payload-version:2 --><!-- payload-start -->eyJ2ZXJzaW9uIjoiMSIsImVuY29kaW5nIjoiYnN0cmluZyIsImNvbXByZXNzZWQiOnRydWUsImVuY29kZWQiOiJ4nO2WXU/bMFx1MDAxNIbv+yuqcFx1MDAwYsWOndjmjsKEOlx1MDAxMFx1MDAwM1x1MDAxNejYxIWbOG1omkSJ29Ih/vtcdTAwMWO3i9ukXHUwMDFkZULapq2Rqvh8+JxcdTAwMWM/r5LnRrNpyXkqrKOmJZ48XHUwMDFlhX7GZ9Z+YZ+KLFx1MDAwZpNYuWy9zpNJ5unIoZRpfnR4aDJaXjJeZIlIjEUsc1x1MDAxNfdVrZvNZ/2vPKGvq9j5OVx1MDAxYVxmL+aTz9eiXHUwMDFmPMqz9tTRqTroRzOZ8CSPXHUwMDA3kTCuJ2U/QFx1MDAxOLdwaZorXHUwMDEzwaBcXM9CX1x1MDAwZYuGaYuWxqFcYlx1MDAwN0OprFx1MDAxMJjIxd5HTWPJZZaMxElcdTAwMTIlWdGAzHicpzxTz2Ja6HNvNMiSSeyXcXtQXHUwMDE0l4lcdMIo6sq53l3NTM3HqtToLbuEXHUwMDE1+7YsVXAwjEWer/WbpNxcdTAwMGLlvPJcXEV3acfX438wPWV8LDrF/ONJXHUwMDE0leYw9kUxVYuDtWqxv6y2XHUwMDE2nVx1MDAwYlHsXHUwMDAwXHUwMDExpo66gFN6XGYpXHUwMDA0wKr1Mok1NYxi6ELomNNcdTAwMGLzU0WL1LtcdTAwMDY8yoWZc9HDh1x1MDAxNZLMo0xSny9SIKHIwTaEXHUwMDE4rlSNwnhU7TxKvJGpoq0v+5vgjPpcdTAwMTddj912cHZxdzb+dJ4/XHUwMDFlR1x1MDAwN2+Ak4J1NInTcmtwrlx1MDAxZVfJ5lx1MDAxYbH/4Vxcg1x1MDAxM+5cdTAwMGWnolx1MDAwMTDIXHUwMDAwRlx1MDAxYuB00FY4oVx1MDAwMpfZXHUwMDBlcOj70olcXIeo633ovDntiTn3rnl4MFx1MDAwM7N7fM/Sq16dTlWjXHUwMDA2JqqAiWFcdTAwMGJcdTAwMDBAXHUwMDExdplcdTAwMGJVkzVINyDKSIsxqrZyXHUwMDAxIbZLye687lx1MDAwNYGPUf+nrG5k+q/k1d6dV4xcdTAwMDBAmNW4LFxcNt5KK3ZcdTAwMWTXQa5rvzetrlxyqf1cdTAwMDZaS3OahKsv/eJn7ppm0npR3j/sv1x1MDAxZV3DzmQ3Kruoo+eZbKuTXGLjQbVxXHUwMDEx+1s8Ous4y5LZUPDauaq8rb40ieZcdTAwMDN9Wq9p9y784pHOx8v7Xp63+9/6J7c33avdtEuY0iqE1Fx1MDAwMYBhXHUwMDA2VsSqpczqnz+MqlxmXHUwMDFiXHUwMDExlUZcdTAwMTmFtskoxfyGL6F/S7x4d/E6iLhQnYp5xa+o1619XHUwMDFlXHUwMDE59Vx1MDAxMugyXHUwMDA07V9R71pcdTAwMWY1/Vx1MDAxMsCo8/v1u5W/Svafqd/GsiOLp2lXqlx1MDAwMSv3Qs3WNFx1MDAxNLP2hs+sgFx1MDAwNizgVmOp/oJ8UVxm8/ml8fJcdTAwMWTXzFD+In0=<!-- payload-end --></metadata><defs><style class="style-fonts">
      </style></defs><g stroke-linecap="round" transform="translate(45.60000000000002 10) rotate(0 14.400000000000006 50)"><path d="M0 0 L28.8 0 L28.8 100 L0 100" stroke="none" stroke-width="0" fill="#1e1e1e"></path><path d="M0 0 C8.21 0, 16.42 0, 28.8 0 M0 0 C8.49 0, 16.97 0, 28.8 0 M28.8 0 C28.8 22.72, 28.8 45.43, 28.8 100 M28.8 0 C28.8 35.95, 28.8 71.9, 28.8 100 M28.8 100 C17.98 100, 7.16 100, 0 100 M28.8 100 C17.52 100, 6.25 100, 0 100 M0 100 C0 78.09, 0 56.18, 0 0 M0 100 C0 68.23, 0 36.47, 0 0" stroke="transparent" stroke-width="1" fill="none"></path></g><g stroke-linecap="round" transform="translate(10 45.60000000000002) rotate(0 50 14.399999999999977)"><path d="M0 0 L100 0 L100 28.8 L0 28.8" stroke="none" stroke-width="0" fill="#1e1e1e"></path><path d="M0 0 C22.06 0, 44.13 0, 100 0 M0 0 C35.58 0, 71.16 0, 100 0 M100 0 C100 8.92, 100 17.83, 100 28.8 M100 0 C100 11.38, 100 22.77, 100 28.8 M100 28.8 C63.79 28.8, 27.59 28.8, 0 28.8 M100 28.8 C68.31 28.8, 36.62 28.8, 0 28.8 M0 28.8 C0 17.76, 0 6.71, 0 0 M0 28.8 C0 22.56, 0 16.32, 0 0" stroke="transparent" stroke-width="1" fill="none"></path></g><g stroke-linecap="round"><g transform="translate(60 11.000834696136508) rotate(0 0 48.999165303863435)"><path d="M0 0 C0 31.94, 0 63.88, 0 98 M0 0 C0 21.37, 0 42.74, 0 98" stroke="#ffd43b" stroke-width="1" fill="none"></path></g></g><mask></mask><g stroke-linecap="round"><g transform="translate(10.998814990509345 60) rotate(0 49.00118500949063 0)"><path d="M0 0 C28.92 0, 57.85 0, 98 0 M0 0 C21.22 0, 42.44 0, 98 0" stroke="#ffd43b" stroke-width="1" fill="none"></path></g></g><mask></mask></svg>